<svg width="73" height="13" viewBox="0 0 73 13" fill="none" xmlns="http://www.w3.org/2000/svg">
<path d="M1.78906 7.66406H4.19531L6.49219 12H8.50781L5.98438 7.39062C7.35938 6.92969 8.17188 5.69531 8.17188 4.17188C8.17188 2.07031 6.72656 0.726562 4.40625 0.726562H0.0390625V12H1.78906V7.66406ZM1.78906 2.19531H4.19531C5.54688 2.19531 6.36719 2.96094 6.36719 4.21875C6.36719 5.50781 5.59375 6.25 4.24219 6.25H1.78906V2.19531ZM15.0781 9.58594C14.8516 10.3047 14.1406 10.7891 13.1797 10.7891C11.8281 10.7891 10.9688 9.84375 10.9688 8.41406V8.3125H16.7734V7.73438C16.7734 5.24219 15.3516 3.63281 13.0703 3.63281C10.75 3.63281 9.26562 5.35156 9.26562 7.92969C9.26562 10.5234 10.7266 12.1562 13.1406 12.1562C15.0234 12.1562 16.4453 11.0859 16.6797 9.58594H15.0781ZM13.0703 4.99219C14.25 4.99219 15.0469 5.875 15.0859 7.13281H10.9766C11.0625 5.89062 11.8906 4.99219 13.0703 4.99219ZM20.4922 12.1406C21.5703 12.1406 22.6094 11.5625 23.0859 10.6484H23.125V12H24.7422V6.33594C24.7422 4.6875 23.4688 3.63281 21.4766 3.63281C19.4453 3.63281 18.1797 4.72656 18.0859 6.21094H19.6797C19.8281 5.47656 20.4375 5.00781 21.4141 5.00781C22.4453 5.00781 23.0625 5.55469 23.0625 6.46875V7.10156L20.8125 7.23438C18.8594 7.34375 17.7578 8.22656 17.7578 9.66406C17.7578 11.1406 18.8828 12.1406 20.4922 12.1406ZM20.9609 10.8047C20.0547 10.8047 19.4609 10.3359 19.4609 9.61719C19.4609 8.91406 20.0312 8.46875 21.0391 8.39844L23.0625 8.27344V8.92188C23.0625 9.99219 22.1406 10.8047 20.9609 10.8047ZM29.4688 12.1406C30.6641 12.1406 31.6016 11.5391 32.0859 10.6016H32.1172V12H33.7578V0.726562H32.0625V5.14844H32.0312C31.5703 4.24219 30.6328 3.64844 29.4531 3.64844C27.3906 3.64844 26.0156 5.29688 26.0156 7.89062C26.0156 10.4844 27.3906 12.1406 29.4688 12.1406ZM29.9141 5.07031C31.2109 5.07031 32.0781 6.1875 32.0781 7.89062C32.0781 9.60938 31.2109 10.7109 29.9141 10.7109C28.5781 10.7109 27.7422 9.625 27.7422 7.89062C27.7422 6.16406 28.5781 5.07031 29.9141 5.07031ZM50.3516 12V0.726562H48.3203L44.6797 9.71094H44.6172L40.9688 0.726562H38.9453V12H40.5391V3.70312H40.5938L44 12H45.2969L48.6953 3.70312H48.75V12H50.3516ZM55.7578 12.1562C58.1094 12.1562 59.6562 10.5391 59.6562 7.89062C59.6562 5.25 58.1016 3.63281 55.7578 3.63281C53.4141 3.63281 51.8594 5.25 51.8594 7.89062C51.8594 10.5391 53.4062 12.1562 55.7578 12.1562ZM55.7578 10.7656C54.4375 10.7656 53.5781 9.71875 53.5781 7.89062C53.5781 6.07031 54.4375 5.02344 55.7578 5.02344C57.0781 5.02344 57.9375 6.07031 57.9375 7.89062C57.9375 9.71875 57.0859 10.7656 55.7578 10.7656ZM60.9609 12H62.6484V7.07812C62.6484 5.91406 63.3203 5.1875 64.4062 5.1875C64.7344 5.1875 65.0312 5.22656 65.1641 5.28125V3.71094C65.0391 3.6875 64.8281 3.64844 64.5859 3.64844C63.6172 3.64844 62.8828 4.21875 62.6094 5.17969H62.5703V3.78125H60.9609V12ZM71.2969 9.58594C71.0703 10.3047 70.3594 10.7891 69.3984 10.7891C68.0469 10.7891 67.1875 9.84375 67.1875 8.41406V8.3125H72.9922V7.73438C72.9922 5.24219 71.5703 3.63281 69.2891 3.63281C66.9688 3.63281 65.4844 5.35156 65.4844 7.92969C65.4844 10.5234 66.9453 12.1562 69.3594 12.1562C71.2422 12.1562 72.6641 11.0859 72.8984 9.58594H71.2969ZM69.2891 4.99219C70.4688 4.99219 71.2656 5.875 71.3047 7.13281H67.1953C67.2812 5.89062 68.1094 4.99219 69.2891 4.99219Z" fill="#409DE2"/>
</svg>
